<mxfile host="0f592679-6510-42c6-9cc9-f831ab3895a2" modified="2020-08-18T05:50:56.674Z" agent="5.0 (Windows NT 10.0; Win64; x64) AppleWebKit/537.36 (KHTML, like Gecko) Code/1.48.0 Chrome/78.0.3904.130 Electron/7.3.2 Safari/537.36" etag="jMPCbui6B5lUW4fdXIqb" version="13.1.3">
    <diagram id="6hGFLwfOUW9BJ-s0fimq" name="Page-1">
        <mxGraphModel dx="2828" dy="792" grid="1" gridSize="10" guides="1" tooltips="1" connect="1" arrows="1" fold="1" page="1" pageScale="1" pageWidth="827" pageHeight="1169" math="0" shadow="0">
            <root>
                <mxCell id="0"/>
                <mxCell id="1" parent="0"/>
                <mxCell id="2" value="&lt;!--StartFragment--&gt;&lt;img src=&quot;https://cdn.nlark.com/yuque/0/2020/webp/84728/1597575770039-75e9b6cd-16fc-4bb4-ae03-c1491bf7340d.webp?x-oss-process=image%2Fresize%2Cw_746&quot;&gt;&lt;!--EndFragment--&gt;" style="text;whiteSpace=wrap;html=1;" vertex="1" parent="1">
                    <mxGeometry x="-1120" y="10" width="600" height="160" as="geometry"/>
                </mxCell>
            </root>
        </mxGraphModel>
    </diagram>
</mxfile>